<?xml version="1.0" encoding="utf-8"?>
<!-- Generator: Adobe Illustrator 14.0.0, SVG Export Plug-In . SVG Version: 6.00 Build 43363)  -->
<!DOCTYPE svg PUBLIC "-//W3C//DTD SVG 1.1//EN" "http://www.w3.org/Graphics/SVG/1.1/DTD/svg11.dtd">
<svg version="1.1" id="Layer_1" xmlns="http://www.w3.org/2000/svg" xmlns:xlink="http://www.w3.org/1999/xlink" x="0px" y="0px"
	 width="79px" height="90px" viewBox="0 0 79 90" enable-background="new 0 0 79 90" xml:space="preserve">
<g>
	<rect fill="#00ABCC" width="79" height="90"/>
	<polygon fill="#FFFFFF" points="17.87793,79.66406 16.63086,79.66406 11.50391,65.78125 14.58057,65.78125 17.33057,73.35742 
		20.32275,65.78125 22.66309,65.78125 25.6543,73.35742 28.39063,65.78125 31.46631,65.78125 26.35303,79.66406 25.10938,79.66406 
		21.48438,70.72168 	"/>
	<polygon fill="#FFFFFF" points="40.18506,79.81055 38.94043,79.81055 33.81152,65.93164 36.88721,65.93164 39.63916,73.50488 
		42.62939,65.93164 44.97266,65.93164 47.96338,73.50488 50.69775,65.93164 53.77539,65.93164 48.66504,79.81055 47.41553,79.81055 
		43.79248,70.87109 	"/>
	<polygon fill="#FFFFFF" points="67.67725,68.29297 63.45313,68.29297 63.45313,79.48047 60.54883,79.48047 60.54883,68.29297 
		56.32861,68.29297 56.32861,65.78125 67.67725,65.78125 	"/>
	<path fill="#FFFFFF" d="M32.13477,43.45605c0.66748,1.80859,1.58301,4.29297,2.9624,5.49414l0.40234,0.40625
		c0.16357,0.11133,0.4292,0.28906,1.08008,0.90137c0.14502,0.13477-0.78467-0.5127-0.94727-0.62695l-0.22607-0.17969
		c-1.5874-1.0918-2.97705-3.86035-3.72363-5.91992c-1.56104,0.29688-1.74902,0.41602-3.31445,0.29688l-1.02051-0.19434
		l-0.42188-0.2832c-0.08057-1.20117,0.50391-1.8457,1.52881-2.12988c0.06592-0.70801,0.67578-1.09277,0.41748-0.83984
		c-0.30469-0.06836-0.9165-0.2793-1.30273-0.36133c-0.98242-0.21094-2.09521-0.45801-2.96338-0.69434
		c-1.38623-0.3291-6.51221-1.13672-7.85254-2.08105c-1.30713-0.91797-0.85352-0.67969-1.40186-1.06836
		c-0.32715-0.2334-0.32324,0.13867,0.69531,1.52441c0,0-1.36084-0.86621-1.8833-0.94336
		c-0.33545-0.04785,0.18994,0.58496,0.74561,1.27148c0,0-0.38281-0.09766-1.33252-0.18848
		c-0.3501-0.03418,0.36621,0.56445,1.08691,1.1748c0,0-1.97314-0.27246,0.13281,1.03613c0,0-1.06006,0.12305,1.24316,1.0752
		c0,0-0.58301,0.1875,1.24902,0.77246c0,0,0.51465,0.77148,1.14111,0.98145c0.4541,0.14941-0.34717-0.01855,1.60352,0.81152
		c0,0,0.07129,1.75,4.07324,3.38867c0,0,0.12354,1.28711,1.2627,2.52441c0,0-0.51416,0.58691-0.12939,1.65918
		c0,0-1.43311-0.12109-1.82666-0.13965c-0.45068-0.02148-1.17871-0.30273-1.70703,0.2334
		c0.09619,0.43262-0.52832,0.18359-0.53564,0.81543c0,0-1.19824,0.18066-1.50195,1.39648c0,0-2.11035,1.2334-0.87012,2.16113
		c1.88184,0.7041,5.66016-0.88672,5.66016-0.88672s1.99316,0.43652,5.32617,0.43652c5.22217,0,10.06396-4.43555,19.60547-4.43555
		c1.25732,0,3.19189,0.41895,3.94678,0.41895c0.75293,0,2.06982-0.16406,2.50928-0.16406c0.44043,0,2.30713,0.30176,2.25684-0.25488
		c-0.01563-0.17285-1.60156,0.05762-3.36377-1.53516c-0.43408-0.34668-1.25439-0.3125-1.94727-0.3125
		c-1.38525,0,0.00977,0.70996-4.07764,0.58496c-3.33154-0.10352-5.24121,0.16602-6.60303-0.07324
		c-1.64844-0.29004-1.49854-0.07422-3.16748-1.5957l-0.52539-0.61719c-0.30615-0.85449-0.30176-2.16699-0.41113-3.59082
		c-2.80908-0.02637-4.7251-0.33594-5.20508-0.42969L32.13477,43.45605z"/>
	<path fill="#FFFFFF" d="M33.48975,38.63574c0.08301-0.46387-0.09277-0.68945,0.67139-1.3916
		c-0.28271-0.76758-0.51611-0.41016-0.99951-2.13281c-1.32861-0.77441-2.33594-2.34668-3.35254-3.87207
		c-0.90918-1.36328-0.60156-1.58301-1.09668-2.1582c-0.26025-0.30566-0.14063,1.11523-0.30127,1.88379
		c0,0-1.1416-2.64746-1.28271-2.14551c-0.02051,0.07422-0.0835,0.88965,0.07422,2.06934c0,0-0.5542-0.80176-1.48926-1.54297
		c-0.14014-0.1123,0.12842,1.51172,0.521,2.12793c0,0-2.729-2.29199-0.38916,0.81543c0,0-2.43506-1.75977-0.44092,0.92969
		c0,0-0.84131-0.51465,0.16357,1.92773c0,0-0.7207-0.11816,0.49756,2.15918c0.17725,0.33203-0.47461,0.53809,0.75732,2.26855
		c0.90967,0.14551-0.41553-0.11523,0.76318,0.13574c0.55713,0.11816,1.1001,0.29102,1.41553,0.36133
		c0.30371-0.19727,0.62842-0.58203,0.98975-0.65723C30.44873,38.59863,31.10889,38.05371,33.48975,38.63574"/>
	<path fill="#FFFFFF" d="M47.625,34.01758c-0.19727-0.98242-0.10791-7.56836-0.36914-8.28809
		c-0.26221-0.71875-1.42676-2.74512-2.04199-4.87598c-0.49219-1.38086-1.8335-4.63574-1.71338-6.32227
		c0.13623-1.8916,0.80078-3.34766-0.39307-2.36328c0.54688-0.45117-1.13867,1.53613-0.69531,1.28809
		c0,0,0.14941-2.10938,0.18311-2.63574c0.0166-0.26758-1.12158,1.07324-1.23242,2.56934c0,0-0.0127-1.36426-0.43066-2.45605
		c-0.15869-0.41602-0.56592,1.84375-0.79492,2.54785c0,0-1.1001-3.45996-0.88428,1.08105c0,0-1.16748-1.85645-0.78467,0.76855
		c0,0-0.81543-0.93457-0.51514,1.63965c0,0-0.86572-0.43066-0.14111,1.83789c0.13184,0.41406-0.99854-0.70508-0.24805,1.84766
		c0,0-0.66113-0.10938,0.02588,1.6582c0,0-0.67773,0.31934-0.02539,1.74512c0.43408,0.94629-0.21973,1.03711,0.46924,2.70801
		c0.68359,0.60645,0.22705,0.10254,0.66504,0.56445c1.09668,1.15234,2.021,1.57031,2.7373,2.19531
		c-0.06592-0.05566,0.60596,1.31152,0.90479,1.8916c-0.09668-0.18652,0.84375,1.8584,0.90527,1.8584
		c-0.04736,0,1.71094,3.52539,2.60547,4.20605c-0.10303-0.07813,0.05469,0.13184,0.79395,0.81934
		c-0.26563-0.24512-1.15283-0.89648-0.32861-0.2832c-2.66748-1.99121-4.92432-7.55566-5.21729-8.30176
		c-0.25732-0.13379-0.71191-0.41895-1.38428-0.9873c-0.22266-0.18652-0.56738-0.48145-0.89014-0.79492
		c-0.40674-0.39453-0.77881-0.64258-1.45166-1.24121c-1.12549-0.94043-4.56543-3.72754-5.354-5.1123
		c-0.79102-1.38574-0.59668-1.93652-0.90625-2.42383c-0.19092-0.29297-0.16846,0.5918-0.30615,1.91504
		c0,0-0.86963-1.81348-1.3291-2.11621c-0.20264-0.13574,0.00195,1.28418,0.18066,1.99902c0,0-1.42383-1.87988-1.66992-1.13379
		c-0.15381,0.46875,0.56543,1.60254,1.05957,2.37695c0,0-2.47412-3.28613-0.37354,1.01758c0,0-2.48877-1.62402,0.36475,1.24121
		c0,0-2.09814-1.01172,0.78271,1.82617c0,0-1.65332-0.84082,0.5293,1.47266c0.54785,0.58203-1.78418-1.14551,1.27002,3.16797
		c0,0-0.99805,0.12988,2.01074,3.64453c0,0-0.92871-0.0791,0.92822,2.70117c0,0-1.12158,0.92578-0.53857,1.7998
		c0,0-3.17676-1.11133-3.62891,0.50879c0,0-1.57227,0.62598-1.66211,1.83789c0,0-1.52637,0.33008-1.43555,1.74414
		c1.89209,0.9248,5.4751-0.30859,5.4751-0.30859s2.31543,0.49707,5.75195,0.49707c5.37988,0,10.65332-4.61133,18.82373-4.61133
		c1.29785,0,4.22754,0.50879,5.22803,0.51465c2.08545,0.01074,2.59668-0.21094,3.05225-0.16797
		c0.44971,0.04688,2.61572,0.12695,2.13232-0.21875c-0.72754-0.52051-1.29004,0.28418-3.50977-1.67188
		c-0.45215-0.35742-1.29492-0.32227-2.01123-0.32227c-1.42725,0-0.03564,0.77344-4.25,0.64355
		c-3.43604-0.10449-5.75928,0.03711-7.17871-0.125C49.84717,37.28223,47.81885,34.9873,47.625,34.01758"/>
</g>
</svg>
