<?xml version="1.0" encoding="utf-8"?>
<!-- Generator: Adobe Illustrator 14.0.0, SVG Export Plug-In . SVG Version: 6.00 Build 43363)  -->
<!DOCTYPE svg PUBLIC "-//W3C//DTD SVG 1.1//EN" "http://www.w3.org/Graphics/SVG/1.1/DTD/svg11.dtd">
<svg version="1.1" id="Isolation_Mode" xmlns="http://www.w3.org/2000/svg" xmlns:xlink="http://www.w3.org/1999/xlink" x="0px"
	 y="0px" width="700px" height="215px" viewBox="0 0 700 215" enable-background="new 0 0 700 215" xml:space="preserve">
<g>
	<path fill="#FFFFFF" d="M121.01367,215c-0.00537,0-0.00977,0-0.01514,0c-56.78857,0-105.66309-4.23926-110.77441-7.06543
		l-0.00098,0.00098c-0.07959-0.0332-0.46436-0.13574-0.71826-0.20508c-0.354-0.09375-0.72754-0.19629-1.07373-0.3125
		c-11.7749-3.78027-8.88037-27.31445-5.21484-57.11035c1.61963-13.16504,3.29443-26.77832,3.86914-39.95898
		c0.03662-15.10938-1.94531-31.354-3.69385-45.68604C0.16406,38.21094-2.38477,17.31738,8.4624,13.05566l0.14063-0.05713
		c0.79736-0.32129,1.88965-0.76123,3.56836-1.19727c10.35547-2.89844,68.14111-8.2373,131.37793-8.2373
		c6.42822,0,12.85352,0.05469,19.09619,0.1626c19.65137,0.23047,39.28711,1.29492,60.0752,2.42188
		c21.60498,1.1709,43.94531,2.38184,66.37695,2.5752c8.94336,0.09668,18.2041,0.14551,27.53076,0.14551
		c28.28955,0,58.50928-0.4375,92.38525-1.33789c22.14648-0.53516,44.23145-2.00195,65.58789-3.42041
		c21.08203-1.40088,40.99414-2.72363,60.96289-3.22705C553.83984,0.29736,572.90918,0,592.23242,0
		c24.62598,0,48.97168,0.48926,68.55273,1.37891c20.61133,0.93604,26.79785,1.71973,28.72949,2.74756
		c1.83301,0.18457,4.26953,1.28662,6.45313,5.07666c6.76758,10.04541,3.72754,29.37451,0.20801,51.74902
		c-2.75,17.48828-5.86816,37.31055-4.74414,55.68164c1.00488,11.54102,2.68555,23.36035,4.31152,34.79004
		c4.42578,31.11719,7.9209,55.69629-4.31934,59.2373c-0.69531,0.23145-1.59473,0.50391-2.55176,0.77148
		c-5.02148,1.54492-35.13965,3.15332-76.76855,3.15332c-24.78809,0-50.61133-0.58398-74.6748-1.69238
		c-22.82324-0.90527-46.13672-1.34961-70.81934-1.82129c-18.86621-0.36035-38.37402-0.7334-57.50195-1.3291
		c-8.10352-0.25098-16.48535-0.37207-25.62305-0.37207c-19.51953,0-39.30811,0.57227-58.44482,1.12695
		c-11.69971,0.33887-23.79736,0.68848-35.64014,0.89941c-43.94922,0.76563-86.75977,1.55859-127.35303,2.84473
		C148.76563,214.74609,134.95605,215,121.01367,215L121.01367,215z M143.54932,7.39307
		c-66.9082,0-121.71387,5.68018-130.37549,8.104c-1.47363,0.3833-2.39307,0.75342-3.13232,1.05127L9.88281,16.6123
		C1.78516,19.79443,4.4165,41.36426,7.20313,64.2002c1.76172,14.44238,3.75928,30.81104,3.71973,46.23535
		c-0.58301,13.41016-2.26709,27.09863-3.89551,40.33887c-3.1748,25.81055-6.17432,50.1875,2.60498,53.00684
		c0.29639,0.09961,0.5918,0.17773,0.87061,0.25293c0.60791,0.16211,1.13281,0.30371,1.58398,0.55371l0.18457,0.11621
		c3.54053,1.89355,49.58252,6.46777,108.72705,6.46777c0.00439,0,0.01074,0,0.01514,0c13.89502,0,27.65381-0.25586,40.89893-0.75586
		c40.63037-1.28906,83.45605-2.08105,127.41895-2.8457c11.82031-0.21289,23.90771-0.5625,35.59668-0.90039
		c19.16406-0.55469,38.98096-1.12695,58.55615-1.12695c9.17773,0,17.59863,0.12109,25.74316,0.37109
		c19.10449,0.59766,38.60059,0.96973,57.45508,1.33008c24.70313,0.4707,48.03711,0.91699,70.91113,1.8252
		c24.01855,1.10449,49.7793,1.68848,74.50977,1.68848c40.7207,0,70.99219-1.55566,75.68359-2.99805
		c0.94238-0.26465,1.7832-0.51855,2.49805-0.75488c9.10938-2.63672,5.48926-28.09277,1.65625-55.04297
		c-1.63281-11.48047-3.32031-23.35254-4.33887-35.0459c-1.15234-18.83594,1.99902-38.87598,4.78027-56.55811
		c3.40039-21.61865,6.33789-40.29053,0.36523-49.06641l-0.0791-0.12891c-0.76172-1.33447-2.37695-3.61768-4.2832-3.17334
		l-0.88086-3.70752c-0.33398,0.1748-0.85742,0.67676-0.87793,1.49756c-0.02246,0.91797,0.60352,1.46973,0.91016,1.59326
		c-3.11035-1.24902-41.65625-3.54346-95.30469-3.54346c-19.28223,0-38.31055,0.29639-56.55664,0.88232
		c-19.90332,0.50195-39.77734,1.82178-60.81934,3.21924c-21.39648,1.42139-43.52148,2.89111-65.74512,3.42822
		c-33.90625,0.90137-64.15918,1.33936-92.48291,1.33936c-9.33984,0-18.61523-0.04932-27.56787-0.14551
		c-22.51514-0.19482-44.90039-1.4082-66.54834-2.58154c-20.74609-1.12451-40.3418-2.18652-59.92236-2.41553
		C156.35791,7.44727,149.95557,7.39307,143.54932,7.39307L143.54932,7.39307z"/>
</g>
</svg>
